<svg width="162" height="69" viewBox="0 0 162 69" fill="none" xmlns="http://www.w3.org/2000/svg">
<path d="M26.784 64.872V69H0V64.872H8.352C6.944 63.592 6.24 61.928 6.24 59.88C6.24 57.768 6.912 56.04 8.256 54.696C9.664 53.288 11.36 52.584 13.344 52.584C15.328 52.584 17.024 53.288 18.432 54.696C19.84 56.04 20.544 57.736 20.544 59.784C20.544 61.832 19.808 63.528 18.336 64.872H26.784ZM87.2925 64.872V69H26.8125V64.872H39.1005C36.0285 63.272 33.2125 61.288 30.6525 58.92L37.7565 50.376C44.5405 56.264 51.5805 59.208 58.8765 59.208C62.5245 59.208 65.4045 58.44 67.5165 56.904C69.6925 55.304 70.7805 53.224 70.7805 50.664C70.7805 48.04 69.7565 46.024 67.7085 44.616C65.7245 43.144 62.2685 41.832 57.3405 40.68C52.4125 39.464 48.6685 38.376 46.1085 37.416C43.5485 36.392 41.2765 35.08 39.2925 33.48C35.3245 30.472 33.3405 25.864 33.3405 19.656C33.3405 13.448 35.5805 8.68 40.0605 5.352C44.6045 1.96 50.2045 0.263998 56.8605 0.263998C61.1485 0.263998 65.4045 0.967999 69.6285 2.376C73.8525 3.784 77.5005 5.768 80.5725 8.328L74.5245 16.872C72.5405 15.08 69.8525 13.608 66.4605 12.456C63.0685 11.304 59.7085 10.728 56.3805 10.728C53.1165 10.728 50.4285 11.4 48.3165 12.744C46.2045 14.088 45.1485 16.136 45.1485 18.888C45.1485 21.576 46.2045 23.656 48.3165 25.128C50.4285 26.536 54.9085 28.072 61.7565 29.736C68.6685 31.4 73.8525 33.736 77.3085 36.744C80.8285 39.752 82.5885 43.976 82.5885 49.416C82.5885 56.008 80.1565 61.16 75.2925 64.872H87.2925Z" fill="black"/>
<path d="M161.873 64.872V69H141.233V41.544H107.921V69H96.5933V1.89599H107.921V30.984H141.233V1.89599H152.561V64.872H161.873ZM96.5933 64.872H87.2812V69H96.5933V64.872Z" fill="#6BF057"/>
</svg>
